<?xml version="1.0" standalone="no"?>
<!DOCTYPE svg PUBLIC "-//W3C//DTD SVG 20010904//EN"
 "http://www.w3.org/TR/2001/REC-SVG-20010904/DTD/svg10.dtd">
<svg version="1.0" xmlns="http://www.w3.org/2000/svg"
 width="192.000000pt" height="93.000000pt" viewBox="0 0 192.000000 93.000000"
 preserveAspectRatio="xMidYMid meet">
<metadata>
Created by potrace 1.16, written by Peter Selinger 2001-2019
</metadata>
<g transform="translate(0.000000,93.000000) scale(0.100000,-0.100000)"
fill="#ffffff" stroke="none">
<path d="M1650 841 c-65 -21 -132 -65 -178 -116 l-50 -56 -11 32 c-12 34 -6
71 16 106 17 26 1 39 -19 15 -43 -48 -50 -118 -19 -166 17 -26 18 -32 5 -69
-34 -95 -6 -218 58 -257 60 -36 164 -21 251 36 l39 25 -7 -23 c-4 -13 -18 -43
-30 -68 l-23 -45 -94 -12 c-155 -19 -268 -76 -268 -135 0 -71 110 -85 223 -30
37 18 91 56 122 84 l56 51 79 -5 c59 -3 80 -1 80 8 0 13 -18 19 -92 29 -27 4
-48 9 -48 11 0 3 11 26 24 52 39 77 60 160 45 178 -21 25 -51 12 -79 -36 -51
-88 -193 -131 -256 -77 -23 20 -28 34 -32 84 -5 75 13 138 37 127 161 -69 366
-15 402 106 10 32 9 44 -7 76 -11 21 -34 47 -52 57 -36 21 -133 31 -172 18z
m149 -46 c57 -29 56 -84 -3 -140 -48 -46 -101 -65 -185 -65 -48 0 -131 25
-131 39 0 3 16 27 35 53 75 103 205 154 284 113z m-178 -619 c-73 -75 -246
-125 -246 -71 0 13 18 30 54 52 59 35 111 50 180 52 l45 1 -33 -34z"/>
<path d="M244 826 c-17 -8 -44 -31 -60 -52 -29 -37 -29 -39 -32 -193 -3 -148
-2 -158 20 -200 44 -83 144 -113 222 -68 76 43 81 57 84 245 3 161 2 168 -20
202 -50 74 -135 100 -214 66z"/>
<path d="M825 819 c-4 -11 -6 -48 -4 -82 2 -53 -3 -72 -31 -130 -56 -117 -53
-236 8 -309 76 -90 246 -91 350 -2 36 31 92 113 92 135 0 22 -19 5 -47 -39
-56 -91 -129 -127 -244 -120 -62 3 -73 7 -101 35 -27 27 -32 41 -36 92 -4 58
5 116 28 176 l10 27 29 -31 c99 -106 308 -92 378 26 72 123 -8 229 -172 227
-79 0 -138 -23 -192 -74 -18 -17 -34 -30 -37 -30 -4 0 -6 27 -6 60 0 59 -13
79 -25 39z m365 -58 c39 -28 54 -62 46 -103 -18 -97 -130 -150 -249 -117 -41
11 -107 70 -107 96 0 30 104 121 157 137 56 18 117 12 153 -13z"/>
<path d="M47 513 c-4 -3 -7 -31 -7 -62 0 -121 92 -236 213 -265 22 -5 27 -12
27 -36 0 -29 -1 -29 -61 -32 -69 -3 -94 -23 -70 -52 11 -13 39 -16 166 -16
161 0 181 6 173 47 -3 15 -15 19 -71 21 -67 3 -67 3 -67 32 0 26 5 31 39 40
104 28 193 130 206 235 9 72 1 97 -33 93 -25 -3 -28 -8 -34 -60 -17 -138 -117
-222 -241 -204 -96 15 -167 89 -175 184 -2 31 -9 63 -14 70 -11 13 -40 16 -51
5z"/>
</g>
</svg>
