<?xml version="1.0" standalone="no"?>
<!DOCTYPE svg PUBLIC "-//W3C//DTD SVG 20010904//EN"
 "http://www.w3.org/TR/2001/REC-SVG-20010904/DTD/svg10.dtd">
<svg version="1.0" xmlns="http://www.w3.org/2000/svg"
 width="300.000000pt" height="300.000000pt" viewBox="0 0 300.000000 300.000000"
 preserveAspectRatio="xMidYMid meet">
<metadata>
Created by potrace 1.16, written by Peter Selinger 2001-2019
</metadata>
<g transform="translate(0.000000,300.000000) scale(0.100000,-0.100000)"
fill="#ffffff" stroke="none">
<path d="M373 2981 c-152 -55 -256 -148 -325 -288 l-43 -88 0 -1105 0 -1105
43 -87 c58 -119 141 -202 260 -260 l87 -43 1105 0 1105 0 87 43 c119 58 202
141 260 260 l43 87 0 1105 0 1105 -43 88 c-59 121 -138 200 -259 259 l-88 43
-1090 2 c-1044 2 -1092 2 -1142 -16z"/>
</g>
</svg>
